<svg xmlns="http://www.w3.org/2000/svg" xmlns:xlink="http://www.w3.org/1999/xlink" contentStyleType="text/css" data-diagram-type="CLASS" height="861px" preserveAspectRatio="none" style="width:1250px;height:861px;background:#FFFFFF;" version="1.1" viewBox="0 0 1250 861" width="1250px" zoomAndPan="magnify"><title>Composants moteur principaux</title><defs/><g><g class="title" data-source-line="2"><text fill="#000000" font-family="sans-serif" font-size="14" font-weight="bold" lengthAdjust="spacing" textLength="227.1855" x="507.9072" y="23.5352">Composants moteur principaux</text></g><!--class Component--><g class="entity" data-entity="Component" data-source-line="7" data-uid="ent0002" id="entity_Component"><rect fill="#F1F1F1" height="97.4648" rx="2.5" ry="2.5" style="stroke:#181818;stroke-width:0.5;" width="207.5215" x="296" y="49.4883"/><ellipse cx="355.9204" cy="65.4883" fill="#A9DCDF" rx="11" ry="11" style="stroke:#181818;stroke-width:1;"/><path d="M355.7837,60.8364 L354.6299,65.9082 L356.9458,65.9082 Z M354.2896,58.5952 L357.2861,58.5952 L360.6313,70.9883 L358.1826,70.9883 L357.4189,67.9253 L354.1401,67.9253 L353.3931,70.9883 L350.9443,70.9883 Z " fill="#000000"/><text fill="#000000" font-family="sans-serif" font-size="14" font-style="italic" lengthAdjust="spacing" textLength="79.1807" x="376.4204" y="70.7793">Component</text><line style="stroke:#181818;stroke-width:0.5;" x1="297" x2="502.5215" y1="81.4883" y2="81.4883"/><text fill="#000000" font-family="sans-serif" font-size="14" lengthAdjust="spacing" textLength="195.5215" x="302" y="99.0234">+gameObject : GameObject*</text><line style="stroke:#181818;stroke-width:0.5;" x1="297" x2="502.5215" y1="105.9766" y2="105.9766"/><text fill="#000000" font-family="sans-serif" font-size="14" lengthAdjust="spacing" textLength="51.707" x="302" y="123.5117">+Start()</text><text fill="#000000" font-family="sans-serif" font-size="14" lengthAdjust="spacing" textLength="102.0947" x="302" y="140">+Update(Time)</text></g><!--class Renderer--><g class="entity" data-entity="Renderer" data-source-line="13" data-uid="ent0003" id="entity_Renderer"><rect fill="#F1F1F1" height="163.418" rx="2.5" ry="2.5" style="stroke:#181818;stroke-width:0.5;" width="156.2998" x="461" y="480.4883"/><ellipse cx="504.3909" cy="496.4883" fill="#ADD1B2" rx="11" ry="11" style="stroke:#181818;stroke-width:1;"/><path d="M506.864,502.6313 Q506.283,502.9302 505.6438,503.0796 Q505.0046,503.229 504.2991,503.229 Q501.7922,503.229 500.4724,501.5771 Q499.1526,499.9253 499.1526,496.8042 Q499.1526,493.6748 500.4724,492.0229 Q501.7922,490.3711 504.2991,490.3711 Q505.0046,490.3711 505.6521,490.5205 Q506.2996,490.6699 506.864,490.9688 L506.864,493.6914 Q506.2332,493.1104 505.6396,492.8406 Q505.0461,492.5708 504.4153,492.5708 Q503.0706,492.5708 502.3857,493.6375 Q501.7009,494.7041 501.7009,496.8042 Q501.7009,498.896 502.3857,499.9626 Q503.0706,501.0293 504.4153,501.0293 Q505.0461,501.0293 505.6396,500.7595 Q506.2332,500.4897 506.864,499.9087 Z " fill="#000000"/><text fill="#000000" font-family="sans-serif" font-size="14" lengthAdjust="spacing" textLength="61.209" x="524.7" y="501.7793">Renderer</text><line style="stroke:#181818;stroke-width:0.5;" x1="462" x2="616.2998" y1="512.4883" y2="512.4883"/><text fill="#000000" font-family="sans-serif" font-size="14" lengthAdjust="spacing" textLength="144.2998" x="467" y="530.0234">-texture : sf::Texture</text><text fill="#000000" font-family="sans-serif" font-size="14" lengthAdjust="spacing" textLength="71.9824" x="467" y="546.5117">-layer : int</text><text fill="#000000" font-family="sans-serif" font-size="14" lengthAdjust="spacing" textLength="128.9189" x="467" y="563">-sortOffsetY : float</text><line style="stroke:#181818;stroke-width:0.5;" x1="462" x2="616.2998" y1="569.9531" y2="569.9531"/><text fill="#000000" font-family="sans-serif" font-size="14" lengthAdjust="spacing" textLength="116.5117" x="467" y="587.4883">+render(window)</text><text fill="#000000" font-family="sans-serif" font-size="14" lengthAdjust="spacing" textLength="141.3125" x="467" y="603.9766">+setCutRectPos(x, y)</text><text fill="#000000" font-family="sans-serif" font-size="14" lengthAdjust="spacing" textLength="109.2998" x="467" y="620.4648">+getLayer() : int</text><text fill="#000000" font-family="sans-serif" font-size="14" lengthAdjust="spacing" textLength="121.8779" x="467" y="636.9531">+getSortY() : float</text></g><!--class Collider--><g class="entity" data-entity="Collider" data-source-line="23" data-uid="ent0004" id="entity_Collider"><rect fill="#F1F1F1" height="146.9297" rx="2.5" ry="2.5" style="stroke:#181818;stroke-width:0.5;" width="214.3232" x="34" y="488.4883"/><ellipse cx="110.5283" cy="504.4883" fill="#ADD1B2" rx="11" ry="11" style="stroke:#181818;stroke-width:1;"/><path d="M113.0015,510.6313 Q112.4204,510.9302 111.7813,511.0796 Q111.1421,511.229 110.4365,511.229 Q107.9297,511.229 106.6099,509.5771 Q105.29,507.9253 105.29,504.8042 Q105.29,501.6748 106.6099,500.0229 Q107.9297,498.3711 110.4365,498.3711 Q111.1421,498.3711 111.7896,498.5205 Q112.437,498.6699 113.0015,498.9688 L113.0015,501.6914 Q112.3706,501.1104 111.7771,500.8406 Q111.1836,500.5708 110.5527,500.5708 Q109.208,500.5708 108.5232,501.6375 Q107.8384,502.7041 107.8384,504.8042 Q107.8384,506.896 108.5232,507.9626 Q109.208,509.0293 110.5527,509.0293 Q111.1836,509.0293 111.7771,508.7595 Q112.3706,508.4897 113.0015,507.9087 Z " fill="#000000"/><text fill="#000000" font-family="sans-serif" font-size="14" lengthAdjust="spacing" textLength="52.7666" x="131.0283" y="509.7793">Collider</text><line style="stroke:#181818;stroke-width:0.5;" x1="35" x2="247.3232" y1="520.4883" y2="520.4883"/><text fill="#000000" font-family="sans-serif" font-size="14" lengthAdjust="spacing" textLength="193.1289" x="40" y="538.0234">-hitbox : sf::RectangleShape</text><text fill="#000000" font-family="sans-serif" font-size="14" lengthAdjust="spacing" textLength="97.4463" x="40" y="554.5117">-trigger : bool</text><text fill="#000000" font-family="sans-serif" font-size="14" lengthAdjust="spacing" textLength="183.3057" x="40" y="571">-callback : TriggerCallback</text><line style="stroke:#181818;stroke-width:0.5;" x1="35" x2="247.3232" y1="577.9531" y2="577.9531"/><text fill="#000000" font-family="sans-serif" font-size="14" lengthAdjust="spacing" textLength="124.3799" x="40" y="595.4883">+isTrigger() : bool</text><text fill="#000000" font-family="sans-serif" font-size="14" lengthAdjust="spacing" textLength="202.3232" x="40" y="611.9766">+setTriggerCallback(callback)</text><text fill="#000000" font-family="sans-serif" font-size="14" lengthAdjust="spacing" textLength="162.5859" x="40" y="628.4648">-intersects(other) : bool</text></g><!--class CharacterController--><g class="entity" data-entity="CharacterController" data-source-line="32" data-uid="ent0005" id="entity_CharacterController"><rect fill="#F1F1F1" height="80.9766" rx="2.5" ry="2.5" style="stroke:#181818;stroke-width:0.5;" width="165.6631" x="62" y="232.9883"/><ellipse cx="77" cy="248.9883" fill="#ADD1B2" rx="11" ry="11" style="stroke:#181818;stroke-width:1;"/><path d="M79.4731,255.1313 Q78.8921,255.4302 78.2529,255.5796 Q77.6138,255.729 76.9082,255.729 Q74.4014,255.729 73.0815,254.0771 Q71.7617,252.4253 71.7617,249.3042 Q71.7617,246.1748 73.0815,244.5229 Q74.4014,242.8711 76.9082,242.8711 Q77.6138,242.8711 78.2612,243.0205 Q78.9087,243.1699 79.4731,243.4688 L79.4731,246.1914 Q78.8423,245.6104 78.2488,245.3406 Q77.6553,245.0708 77.0244,245.0708 Q75.6797,245.0708 74.9949,246.1375 Q74.3101,247.2041 74.3101,249.3042 Q74.3101,251.396 74.9949,252.4626 Q75.6797,253.5293 77.0244,253.5293 Q77.6553,253.5293 78.2488,253.2595 Q78.8423,252.9897 79.4731,252.4087 Z " fill="#000000"/><text fill="#000000" font-family="sans-serif" font-size="14" lengthAdjust="spacing" textLength="133.6631" x="91" y="254.2793">CharacterController</text><line style="stroke:#181818;stroke-width:0.5;" x1="63" x2="226.6631" y1="264.9883" y2="264.9883"/><text fill="#000000" font-family="sans-serif" font-size="14" lengthAdjust="spacing" textLength="131.1543" x="68" y="282.5234">-collider : Collider*</text><line style="stroke:#181818;stroke-width:0.5;" x1="63" x2="226.6631" y1="289.4766" y2="289.4766"/><text fill="#000000" font-family="sans-serif" font-size="14" lengthAdjust="spacing" textLength="90.5762" x="68" y="307.0117">+move(delta)</text></g><!--class Animator--><g class="entity" data-entity="Animator" data-source-line="37" data-uid="ent0006" id="entity_Animator"><rect fill="#F1F1F1" height="179.9063" rx="2.5" ry="2.5" style="stroke:#181818;stroke-width:0.5;" width="335.9961" x="458" y="183.4883"/><ellipse cx="590.3677" cy="199.4883" fill="#ADD1B2" rx="11" ry="11" style="stroke:#181818;stroke-width:1;"/><path d="M592.8408,205.6313 Q592.2598,205.9302 591.6206,206.0796 Q590.9814,206.229 590.2759,206.229 Q587.769,206.229 586.4492,204.5771 Q585.1294,202.9253 585.1294,199.8042 Q585.1294,196.6748 586.4492,195.0229 Q587.769,193.3711 590.2759,193.3711 Q590.9814,193.3711 591.6289,193.5205 Q592.2764,193.6699 592.8408,193.9688 L592.8408,196.6914 Q592.21,196.1104 591.6165,195.8406 Q591.0229,195.5708 590.3921,195.5708 Q589.0474,195.5708 588.3625,196.6375 Q587.6777,197.7041 587.6777,199.8042 Q587.6777,201.896 588.3625,202.9626 Q589.0474,204.0293 590.3921,204.0293 Q591.0229,204.0293 591.6165,203.7595 Q592.21,203.4897 592.8408,202.9087 Z " fill="#000000"/><text fill="#000000" font-family="sans-serif" font-size="14" lengthAdjust="spacing" textLength="62.7607" x="610.8677" y="204.7793">Animator</text><line style="stroke:#181818;stroke-width:0.5;" x1="459" x2="792.9961" y1="215.4883" y2="215.4883"/><text fill="#000000" font-family="sans-serif" font-size="14" lengthAdjust="spacing" textLength="147.4307" x="464" y="233.0234">-renderer : Renderer*</text><text fill="#000000" font-family="sans-serif" font-size="14" lengthAdjust="spacing" textLength="171.6641" x="464" y="249.5117">-graph : AnimatorGraph*</text><text fill="#000000" font-family="sans-serif" font-size="14" lengthAdjust="spacing" textLength="234.1035" x="464" y="266">-m_currentState : AnimationState*</text><text fill="#000000" font-family="sans-serif" font-size="14" lengthAdjust="spacing" textLength="287.0957" x="464" y="282.4883">-m_parameters : map&lt;string, Parameter&gt;</text><line style="stroke:#181818;stroke-width:0.5;" x1="459" x2="792.9961" y1="289.4414" y2="289.4414"/><text fill="#000000" font-family="sans-serif" font-size="14" lengthAdjust="spacing" textLength="159.2158" x="464" y="306.9766">+setParam(label, value)</text><text fill="#000000" font-family="sans-serif" font-size="14" lengthAdjust="spacing" textLength="323.9961" x="464" y="323.4648">+registerAnimationEvent(state, frame, callback)</text><text fill="#000000" font-family="sans-serif" font-size="14" lengthAdjust="spacing" textLength="122.7461" x="464" y="339.9531">-makeTransition()</text><text fill="#000000" font-family="sans-serif" font-size="14" lengthAdjust="spacing" textLength="132.583" x="464" y="356.4414">-applyToRenderer()</text></g><!--class Camera--><g class="entity" data-entity="Camera" data-source-line="48" data-uid="ent0007" id="entity_Camera"><rect fill="#F1F1F1" height="80.9766" rx="2.5" ry="2.5" style="stroke:#181818;stroke-width:0.5;" width="136.2705" x="291" y="381.4883"/><ellipse cx="329.6351" cy="397.4883" fill="#ADD1B2" rx="11" ry="11" style="stroke:#181818;stroke-width:1;"/><path d="M332.1083,403.6313 Q331.5272,403.9302 330.888,404.0796 Q330.2489,404.229 329.5433,404.229 Q327.0365,404.229 325.7167,402.5771 Q324.3968,400.9253 324.3968,397.8042 Q324.3968,394.6748 325.7167,393.0229 Q327.0365,391.3711 329.5433,391.3711 Q330.2489,391.3711 330.8963,391.5205 Q331.5438,391.6699 332.1083,391.9688 L332.1083,394.6914 Q331.4774,394.1104 330.8839,393.8406 Q330.2904,393.5708 329.6595,393.5708 Q328.3148,393.5708 327.63,394.6375 Q326.9452,395.7041 326.9452,397.8042 Q326.9452,399.896 327.63,400.9626 Q328.3148,402.0293 329.6595,402.0293 Q330.2904,402.0293 330.8839,401.7595 Q331.4774,401.4897 332.1083,400.9087 Z " fill="#000000"/><text fill="#000000" font-family="sans-serif" font-size="14" lengthAdjust="spacing" textLength="51.748" x="348.8874" y="402.7793">Camera</text><line style="stroke:#181818;stroke-width:0.5;" x1="292" x2="426.2705" y1="413.4883" y2="413.4883"/><text fill="#000000" font-family="sans-serif" font-size="14" lengthAdjust="spacing" textLength="124.2705" x="297" y="431.0234">-m_view : sf::View</text><line style="stroke:#181818;stroke-width:0.5;" x1="292" x2="426.2705" y1="437.9766" y2="437.9766"/><text fill="#000000" font-family="sans-serif" font-size="14" lengthAdjust="spacing" textLength="73.7871" x="297" y="455.5117">+getView()</text></g><!--class UIDocument--><g class="entity" data-entity="UIDocument" data-source-line="53" data-uid="ent0008" id="entity_UIDocument"><rect fill="#F1F1F1" height="179.9063" rx="2.5" ry="2.5" style="stroke:#181818;stroke-width:0.5;" width="241.9199" x="1002" y="183.4883"/><ellipse cx="1076.9731" cy="199.4883" fill="#ADD1B2" rx="11" ry="11" style="stroke:#181818;stroke-width:1;"/><path d="M1079.4463,205.6313 Q1078.8652,205.9302 1078.2261,206.0796 Q1077.5869,206.229 1076.8813,206.229 Q1074.3745,206.229 1073.0547,204.5771 Q1071.7349,202.9253 1071.7349,199.8042 Q1071.7349,196.6748 1073.0547,195.0229 Q1074.3745,193.3711 1076.8813,193.3711 Q1077.5869,193.3711 1078.2344,193.5205 Q1078.8818,193.6699 1079.4463,193.9688 L1079.4463,196.6914 Q1078.8154,196.1104 1078.2219,195.8406 Q1077.6284,195.5708 1076.9976,195.5708 Q1075.6528,195.5708 1074.968,196.6375 Q1074.2832,197.7041 1074.2832,199.8042 Q1074.2832,201.896 1074.968,202.9626 Q1075.6528,204.0293 1076.9976,204.0293 Q1077.6284,204.0293 1078.2219,203.7595 Q1078.8154,203.4897 1079.4463,202.9087 Z " fill="#000000"/><text fill="#000000" font-family="sans-serif" font-size="14" lengthAdjust="spacing" textLength="83.4736" x="1097.4731" y="204.7793">UIDocument</text><line style="stroke:#181818;stroke-width:0.5;" x1="1003" x2="1242.9199" y1="215.4883" y2="215.4883"/><text fill="#000000" font-family="sans-serif" font-size="14" lengthAdjust="spacing" textLength="108.0146" x="1008" y="233.0234">-gui : tgui::Gui*</text><text fill="#000000" font-family="sans-serif" font-size="14" lengthAdjust="spacing" textLength="229.9199" x="1008" y="249.5117">#elements : vector&lt;tgui::Widget&gt;</text><text fill="#000000" font-family="sans-serif" font-size="14" lengthAdjust="spacing" textLength="99.0459" x="1008" y="266">#hidden : bool</text><line style="stroke:#181818;stroke-width:0.5;" x1="1003" x2="1242.9199" y1="272.9531" y2="272.9531"/><text fill="#000000" font-family="sans-serif" font-size="14" lengthAdjust="spacing" textLength="191.3789" x="1008" y="290.4883">+addElement(widget, name)</text><text fill="#000000" font-family="sans-serif" font-size="14" lengthAdjust="spacing" textLength="49.5811" x="1008" y="306.9766">+hide()</text><text fill="#000000" font-family="sans-serif" font-size="14" lengthAdjust="spacing" textLength="55.4463" x="1008" y="323.4648">+show()</text><text fill="#000000" font-family="sans-serif" font-size="14" lengthAdjust="spacing" textLength="110.1611" x="1008" y="339.9531">+moveToFront()</text><text fill="#000000" font-family="sans-serif" font-size="14" lengthAdjust="spacing" textLength="105.54" x="1008" y="356.4414">+moveToBack()</text></g><!--class RenderManager--><g class="entity" data-entity="RenderManager" data-source-line="64" data-uid="ent0009" id="entity_RenderManager"><rect fill="#F1F1F1" height="155.5508" rx="2.5" ry="2.5" style="stroke:#181818;stroke-width:0.5;" width="246.8008" x="328.5" y="698.4883"/><ellipse cx="394.5762" cy="718.7988" fill="#ADD1B2" rx="11" ry="11" style="stroke:#181818;stroke-width:1;"/><path d="M397.0493,724.9419 Q396.4683,725.2407 395.8291,725.3901 Q395.1899,725.5396 394.4844,725.5396 Q391.9775,725.5396 390.6577,723.8877 Q389.3379,722.2358 389.3379,719.1147 Q389.3379,715.9854 390.6577,714.3335 Q391.9775,712.6816 394.4844,712.6816 Q395.1899,712.6816 395.8374,712.8311 Q396.4849,712.9805 397.0493,713.2793 L397.0493,716.002 Q396.4185,715.4209 395.825,715.1511 Q395.2314,714.8813 394.6006,714.8813 Q393.2559,714.8813 392.571,715.948 Q391.8862,717.0146 391.8862,719.1147 Q391.8862,721.2065 392.571,722.2732 Q393.2559,723.3398 394.6006,723.3398 Q395.2314,723.3398 395.825,723.0701 Q396.4185,722.8003 397.0493,722.2192 Z " fill="#000000"/><text fill="#000000" font-family="sans-serif" font-size="12" font-style="italic" lengthAdjust="spacing" textLength="43.9102" x="446.1953" y="715.0898">&#171;static&#187;</text><text fill="#000000" font-family="sans-serif" font-size="14" lengthAdjust="spacing" textLength="106.1484" x="415.0762" y="731.1563">RenderManager</text><line style="stroke:#181818;stroke-width:0.5;" x1="329.5" x2="574.3008" y1="739.1094" y2="739.1094"/><text fill="#000000" font-family="sans-serif" font-size="14" lengthAdjust="spacing" textLength="234.8008" x="334.5" y="756.6445">-mRenderers : vector&lt;Renderer*&gt;</text><text fill="#000000" font-family="sans-serif" font-size="14" lengthAdjust="spacing" textLength="165.1699" x="334.5" y="773.1328">-mainCamera : Camera*</text><line style="stroke:#181818;stroke-width:0.5;" x1="329.5" x2="574.3008" y1="780.0859" y2="780.0859"/><text fill="#000000" font-family="sans-serif" font-size="14" lengthAdjust="spacing" textLength="201.6055" x="334.5" y="797.6211">+registerRenderer(Renderer*)</text><text fill="#000000" font-family="sans-serif" font-size="14" lengthAdjust="spacing" textLength="218.9824" x="334.5" y="814.1094">+unregisterRenderer(Renderer*)</text><text fill="#000000" font-family="sans-serif" font-size="14" lengthAdjust="spacing" textLength="134.2646" x="334.5" y="830.5977">+renderAll(window)</text><text fill="#000000" font-family="sans-serif" font-size="14" lengthAdjust="spacing" textLength="183.1758" x="334.5" y="847.0859">+setMainCamera(Camera*)</text></g><!--class CollisionsManager--><g class="entity" data-entity="CollisionsManager" data-source-line="73" data-uid="ent0010" id="entity_CollisionsManager"><rect fill="#F1F1F1" height="155.5508" rx="2.5" ry="2.5" style="stroke:#181818;stroke-width:0.5;" width="269.9814" x="6" y="698.4883"/><ellipse cx="74.4893" cy="718.7988" fill="#ADD1B2" rx="11" ry="11" style="stroke:#181818;stroke-width:1;"/><path d="M76.9624,724.9419 Q76.3813,725.2407 75.7422,725.3901 Q75.103,725.5396 74.3975,725.5396 Q71.8906,725.5396 70.5708,723.8877 Q69.251,722.2358 69.251,719.1147 Q69.251,715.9854 70.5708,714.3335 Q71.8906,712.6816 74.3975,712.6816 Q75.103,712.6816 75.7505,712.8311 Q76.3979,712.9805 76.9624,713.2793 L76.9624,716.002 Q76.3315,715.4209 75.738,715.1511 Q75.1445,714.8813 74.5137,714.8813 Q73.1689,714.8813 72.4841,715.948 Q71.7993,717.0146 71.7993,719.1147 Q71.7993,721.2065 72.4841,722.2732 Q73.1689,723.3398 74.5137,723.3398 Q75.1445,723.3398 75.738,723.0701 Q76.3315,722.8003 76.9624,722.2192 Z " fill="#000000"/><text fill="#000000" font-family="sans-serif" font-size="12" font-style="italic" lengthAdjust="spacing" textLength="43.9102" x="135.2856" y="715.0898">&#171;static&#187;</text><text fill="#000000" font-family="sans-serif" font-size="14" lengthAdjust="spacing" textLength="124.5029" x="94.9893" y="731.1563">CollisionsManager</text><line style="stroke:#181818;stroke-width:0.5;" x1="7" x2="274.9814" y1="739.1094" y2="739.1094"/><text fill="#000000" font-family="sans-serif" font-size="14" lengthAdjust="spacing" textLength="237.4873" x="12" y="756.6445">-solidColliders : vector&lt;Collider*&gt;</text><text fill="#000000" font-family="sans-serif" font-size="14" lengthAdjust="spacing" textLength="257.9814" x="12" y="773.1328">-triggersColliders : vector&lt;Collider*&gt;</text><line style="stroke:#181818;stroke-width:0.5;" x1="7" x2="274.9814" y1="780.0859" y2="780.0859"/><text fill="#000000" font-family="sans-serif" font-size="14" lengthAdjust="spacing" textLength="184.7207" x="12" y="797.6211">+registerCollider(Collider*)</text><text fill="#000000" font-family="sans-serif" font-size="14" lengthAdjust="spacing" textLength="205.2217" x="12" y="814.1094">+unRegisterCollider(Collider*)</text><text fill="#000000" font-family="sans-serif" font-size="14" lengthAdjust="spacing" textLength="152.2021" x="12" y="830.5977">+move(Collider, delta)</text><text fill="#000000" font-family="sans-serif" font-size="14" lengthAdjust="spacing" textLength="161.6289" x="12" y="847.0859">+checkTrigger(Collider)</text></g><!--class AnimatorGraph--><g class="entity" data-entity="AnimatorGraph" data-source-line="82" data-uid="ent0011" id="entity_AnimatorGraph"><rect fill="#F1F1F1" height="48" rx="2.5" ry="2.5" style="stroke:#181818;stroke-width:0.5;" width="135.8379" x="781" y="537.9883"/><ellipse cx="796" cy="553.9883" fill="#ADD1B2" rx="11" ry="11" style="stroke:#181818;stroke-width:1;"/><path d="M798.4731,560.1313 Q797.8921,560.4302 797.2529,560.5796 Q796.6138,560.729 795.9082,560.729 Q793.4014,560.729 792.0815,559.0771 Q790.7617,557.4253 790.7617,554.3042 Q790.7617,551.1748 792.0815,549.5229 Q793.4014,547.8711 795.9082,547.8711 Q796.6138,547.8711 797.2612,548.0205 Q797.9087,548.1699 798.4731,548.4688 L798.4731,551.1914 Q797.8423,550.6104 797.2488,550.3406 Q796.6553,550.0708 796.0244,550.0708 Q794.6797,550.0708 793.9949,551.1375 Q793.3101,552.2041 793.3101,554.3042 Q793.3101,556.396 793.9949,557.4626 Q794.6797,558.5293 796.0244,558.5293 Q796.6553,558.5293 797.2488,558.2595 Q797.8423,557.9897 798.4731,557.4087 Z " fill="#000000"/><text fill="#000000" font-family="sans-serif" font-size="14" lengthAdjust="spacing" textLength="103.8379" x="810" y="559.2793">AnimatorGraph</text><line style="stroke:#181818;stroke-width:0.5;" x1="782" x2="915.8379" y1="569.9883" y2="569.9883"/><line style="stroke:#181818;stroke-width:0.5;" x1="782" x2="915.8379" y1="577.9883" y2="577.9883"/></g><!--class AnimatorTreeLoader--><g class="entity" data-entity="AnimatorTreeLoader" data-source-line="83" data-uid="ent0012" id="entity_AnimatorTreeLoader"><rect fill="#F1F1F1" height="56.6211" rx="2.5" ry="2.5" style="stroke:#181818;stroke-width:0.5;" width="171.0771" x="812.5" y="244.9883"/><ellipse cx="827.5" cy="265.2988" fill="#ADD1B2" rx="11" ry="11" style="stroke:#181818;stroke-width:1;"/><path d="M829.9731,271.4419 Q829.3921,271.7407 828.7529,271.8901 Q828.1138,272.0396 827.4082,272.0396 Q824.9014,272.0396 823.5815,270.3877 Q822.2617,268.7358 822.2617,265.6147 Q822.2617,262.4854 823.5815,260.8335 Q824.9014,259.1816 827.4082,259.1816 Q828.1138,259.1816 828.7612,259.3311 Q829.4087,259.4805 829.9731,259.7793 L829.9731,262.502 Q829.3423,261.9209 828.7488,261.6511 Q828.1553,261.3813 827.5244,261.3813 Q826.1797,261.3813 825.4949,262.448 Q824.8101,263.5146 824.8101,265.6147 Q824.8101,267.7065 825.4949,268.7732 Q826.1797,269.8398 827.5244,269.8398 Q828.1553,269.8398 828.7488,269.5701 Q829.3423,269.3003 829.9731,268.7192 Z " fill="#000000"/><text fill="#000000" font-family="sans-serif" font-size="12" font-style="italic" lengthAdjust="spacing" textLength="43.9102" x="889.0835" y="261.5898">&#171;static&#187;</text><text fill="#000000" font-family="sans-serif" font-size="14" lengthAdjust="spacing" textLength="139.0771" x="841.5" y="277.6563">AnimatorTreeLoader</text><line style="stroke:#181818;stroke-width:0.5;" x1="813.5" x2="982.5771" y1="285.6094" y2="285.6094"/><line style="stroke:#181818;stroke-width:0.5;" x1="813.5" x2="982.5771" y1="293.6094" y2="293.6094"/></g><!--class SceneManager--><g class="entity" data-entity="SceneManager" data-source-line="84" data-uid="ent0013" id="entity_SceneManager"><rect fill="#F1F1F1" height="56.6211" rx="2.5" ry="2.5" style="stroke:#181818;stroke-width:0.5;" width="129.4668" x="1058.5" y="533.4883"/><ellipse cx="1073.5" cy="553.7988" fill="#ADD1B2" rx="11" ry="11" style="stroke:#181818;stroke-width:1;"/><path d="M1075.9731,559.9419 Q1075.3921,560.2407 1074.7529,560.3901 Q1074.1138,560.5396 1073.4082,560.5396 Q1070.9014,560.5396 1069.5815,558.8877 Q1068.2617,557.2358 1068.2617,554.1147 Q1068.2617,550.9854 1069.5815,549.3335 Q1070.9014,547.6816 1073.4082,547.6816 Q1074.1138,547.6816 1074.7612,547.8311 Q1075.4087,547.9805 1075.9731,548.2793 L1075.9731,551.002 Q1075.3423,550.4209 1074.7488,550.1511 Q1074.1553,549.8813 1073.5244,549.8813 Q1072.1797,549.8813 1071.4949,550.948 Q1070.8101,552.0146 1070.8101,554.1147 Q1070.8101,556.2065 1071.4949,557.2732 Q1072.1797,558.3398 1073.5244,558.3398 Q1074.1553,558.3398 1074.7488,558.0701 Q1075.3423,557.8003 1075.9731,557.2192 Z " fill="#000000"/><text fill="#000000" font-family="sans-serif" font-size="12" font-style="italic" lengthAdjust="spacing" textLength="43.9102" x="1114.2783" y="550.0898">&#171;static&#187;</text><text fill="#000000" font-family="sans-serif" font-size="14" lengthAdjust="spacing" textLength="97.4668" x="1087.5" y="566.1563">SceneManager</text><line style="stroke:#181818;stroke-width:0.5;" x1="1059.5" x2="1186.9668" y1="574.1094" y2="574.1094"/><line style="stroke:#181818;stroke-width:0.5;" x1="1059.5" x2="1186.9668" y1="582.1094" y2="582.1094"/></g><g class="link" data-entity-1="Component" data-entity-2="Renderer" data-uid="lnk14" id="link_Component_Renderer"><polygon fill="none" points="405.268,146.6606,401.5596,165.2684,413.466,163.7718,405.268,146.6606" style="stroke:#181818;stroke-width:1;"/><path d="M407.5128,164.5201 C414.2532,218.1457 425.6919,289.5507 449,363.4883 C461.4617,403.0191 479.831,445.0429 496.7302,480.1185" fill="none" style="stroke:#181818;stroke-width:1;"/></g><g class="link" data-entity-1="Component" data-entity-2="Collider" data-uid="lnk15" id="link_Component_Collider"><polygon fill="none" points="378.564,146.5948,365.8624,160.6898,376.8597,165.4918,378.564,146.5948" style="stroke:#181818;stroke-width:1;"/><path d="M371.3611,163.0908 C366.1285,175.0743 367.8474,171.456 363,183.4883 C327.9525,270.4843 321.545,293.1619 290,381.4883 C277.1889,417.3595 283.8264,431.2717 262,462.4883 C255.7138,471.479 248.3881,480.0902 240.5093,488.2171" fill="none" style="stroke:#181818;stroke-width:1;"/></g><g class="link" data-entity-1="Component" data-entity-2="CharacterController" data-uid="lnk16" id="link_Component_CharacterController"><polygon fill="none" points="295.9872,144.1318,277.294,147.3822,282.9829,157.948,295.9872,144.1318" style="stroke:#181818;stroke-width:1;"/><path d="M280.1384,152.6651 C268.3804,158.9959 272.657,157.2865 262,164.4883 C232.912,184.1454 203.89,210.8787 182.0273,232.8296" fill="none" style="stroke:#181818;stroke-width:1;"/></g><g class="link" data-entity-1="Component" data-entity-2="Animator" data-uid="lnk17" id="link_Component_Animator"><polygon fill="none" points="462.0544,146.6274,472.6785,162.3477,479.9859,152.8292,462.0544,146.6274" style="stroke:#181818;stroke-width:1;"/><path d="M476.3322,157.5885 C491.229,169.0247 493.342,170.6469 509.823,183.2993" fill="none" style="stroke:#181818;stroke-width:1;"/></g><g class="link" data-entity-1="Component" data-entity-2="Camera" data-uid="lnk18" id="link_Component_Camera"><polygon fill="none" points="393.9503,146.5005,385.7248,163.5985,397.6287,165.1142,393.9503,146.5005" style="stroke:#181818;stroke-width:1;"/><path d="M391.6767,164.3563 C383.5686,228.0348 371.5978,322.0495 364.0402,381.4039" fill="none" style="stroke:#181818;stroke-width:1;"/></g><g class="link" data-entity-1="Component" data-entity-2="UIDocument" data-uid="lnk19" id="link_Component_UIDocument"><polygon fill="none" points="504.1051,99.762,521.8942,106.361,522.2958,94.3677,504.1051,99.762" style="stroke:#181818;stroke-width:1;"/><path d="M522.095,100.3643 C643.2084,104.4194 829.3404,120.5354 992,183.4883 C995.3334,184.7784 998.6662,186.167 1001.9896,187.6407" fill="none" style="stroke:#181818;stroke-width:1;"/></g><g class="link" data-entity-1="Renderer" data-entity-2="RenderManager" data-uid="lnk20" id="link_Renderer_RenderManager"><polygon fill="#181818" points="483.5563,698.4112,490.668,691.5977,485.4507,693.7839,483.2645,688.5666,483.5563,698.4112" style="stroke:#181818;stroke-width:1;"/><path d="M505.985,643.6284 C498.6303,661.5924 493.1238,675.0422 485.8296,692.8585" fill="none" style="stroke:#181818;stroke-width:1;"/><text fill="#000000" font-family="sans-serif" font-size="13" lengthAdjust="spacing" textLength="73.3916" x="501" y="676.0566">s'enregistre</text></g><g class="link" data-entity-1="Camera" data-entity-2="RenderManager" data-uid="lnk21" id="link_Camera_RenderManager"><polygon fill="#181818" points="393.4751,698.2182,392.2865,688.4413,390.9078,693.9276,385.4216,692.5489,393.4751,698.2182" style="stroke:#181818;stroke-width:1;"/><path d="M354.5344,462.6765 C350.8513,507.653 348.9193,582.6174 368,643.4883 C373.8905,662.2801 380.1011,675.8663 390.3944,693.0694" fill="none" style="stroke:#181818;stroke-width:1;"/><text fill="#000000" font-family="sans-serif" font-size="13" lengthAdjust="spacing" textLength="80.9707" x="370" y="567.0566">main camera</text></g><g class="link" data-entity-1="Collider" data-entity-2="CollisionsManager" data-uid="lnk22" id="link_Collider_CollisionsManager"><polygon fill="#181818" points="141,698.198,145,689.198,141,693.198,137,689.198,141,698.198" style="stroke:#181818;stroke-width:1;"/><path d="M141,635.5244 C141,655.7236 141,671.7365 141,692.198" fill="none" style="stroke:#181818;stroke-width:1;"/><text fill="#000000" font-family="sans-serif" font-size="13" lengthAdjust="spacing" textLength="73.3916" x="143" y="676.0566">s'enregistre</text></g><g class="link" data-entity-1="CharacterController" data-entity-2="Collider" data-uid="lnk23" id="link_CharacterController_Collider"><polygon fill="#181818" points="127.8372,488.2623,130.5992,478.8087,127.1693,483.3071,122.6709,479.8773,127.8372,488.2623" style="stroke:#181818;stroke-width:1;"/><path d="M135.7825,314.1301 C131.5799,334.1929 127.0835,359.0014 125,381.4883 C121.6786,417.3347 122.1046,426.6049 125,462.4883 C125.6758,470.8636 125.8684,473.6546 127.0358,482.3161" fill="none" style="stroke:#181818;stroke-width:1;"/><text fill="#000000" font-family="sans-serif" font-size="13" lengthAdjust="spacing" textLength="133.5039" x="127" y="427.0566">deplace en pensant &#224;</text></g><g class="link" data-entity-1="Animator" data-entity-2="Renderer" data-uid="lnk24" id="link_Animator_Renderer"><polygon fill="#181818" points="563.5211,480.2377,569.9636,472.7882,564.9739,475.4534,562.3088,470.4637,563.5211,480.2377" style="stroke:#181818;stroke-width:1;"/><path d="M598.9496,363.5682 C587.6266,400.8559 576.3031,438.1452 565.2645,474.4965" fill="none" style="stroke:#181818;stroke-width:1;"/><text fill="#000000" font-family="sans-serif" font-size="13" lengthAdjust="spacing" textLength="114.4609" x="595" y="427.0566">change les frames</text></g><g class="link" data-entity-1="Animator" data-entity-2="AnimatorGraph" data-uid="lnk25" id="link_Animator_AnimatorGraph"><polygon fill="#181818" points="832.2481,537.7439,830.2065,528.1089,829.3144,533.695,823.7283,532.8029,832.2481,537.7439" style="stroke:#181818;stroke-width:1;"/><path d="M700.655,363.5289 C705.544,369.5789 710.363,375.6057 715,381.4883 C758.4546,436.6153 803.7271,498.3817 828.7276,532.8852" fill="none" style="stroke:#181818;stroke-width:1;"/><text fill="#000000" font-family="sans-serif" font-size="13" lengthAdjust="spacing" textLength="12.3779" x="777" y="427.0566">lit</text></g><g class="link" data-entity-1="AnimatorTreeLoader" data-entity-2="AnimatorGraph" data-uid="lnk26" id="link_AnimatorTreeLoader_AnimatorGraph"><polygon fill="#181818" points="852.9804,537.715,858.4404,529.5181,853.8233,532.7865,850.5549,528.1694,852.9804,537.715" style="stroke:#181818;stroke-width:1;"/><path d="M893.2572,302.2194 C883.626,358.5321 862.945,479.4528 853.9919,531.8008" fill="none" style="stroke:#181818;stroke-width:1;stroke-dasharray:7,7;"/><text fill="#000000" font-family="sans-serif" font-size="13" lengthAdjust="spacing" textLength="119.1265" x="882" y="427.0566">charge depuis XML</text></g><g class="link" data-entity-1="UIDocument" data-entity-2="SceneManager" data-uid="lnk27" id="link_UIDocument_SceneManager"><polygon fill="#181818" points="1123,533.4606,1127,524.4606,1123,528.4606,1119,524.4606,1123,533.4606" style="stroke:#181818;stroke-width:1;"/><path d="M1123,363.5682 C1123,422.0459 1123,488.6476 1123,527.4606" fill="none" style="stroke:#181818;stroke-width:1;"/><text fill="#000000" font-family="sans-serif" font-size="13" lengthAdjust="spacing" textLength="80.6089" x="1125" y="427.0566">recupere Gui</text></g><!--SRC=[XLNDZjis4BxhALZq47bh1paBXe6jcou2x2B1sccRKp2MnXQp52cGb7StRT-bxz8Nw_3Nihp5daGDl_d_PlX3h-7G0HFmh0RBJ8SM91IMMu5ihRfU6P3Mi4vP73JhDPSrxs5uAWhpm6KF6ZfM2p3csbhDTuF53xMI6_uTsRiHH729zhb7fhHjLL70pbWDjGswmPD4QTcV1MC_iGDq-77t3GbGiPlyS-KlDnQqBMV-_Bblm6AvvHtEYh-B8fYxHzcWHksjBPZ59pje95DcNrNRyETlA6r2LOnBw_yDXVTnlpTelv1qBnHOxqPxW-KZburw39u9inxiFKNrIPdoQSwUW_o0zjPPBMVPhXTkoFGNBmncSx1h9GHlSh0jjplr56Drva4U16vQw4F8LEN3mGUzKqfuKGr2xA1-8DastAwZn3ld9agzzwZb4vYWosHevirIyAWDHM1APLlKMViKUWkkYMH1IQifZvn5dPAgSdwXUPqwOjcWi33grxNa7LYLb7LgNvKxUUKl3XhwbgG9V-F-mrNtjHuqALfYXyMCuSH59qWWpqPqUH6aWtv9DEJoC6UVqiKg5STBIW4x57Ds137WB7BXm0q1iuFtHt9R6kTcplREp9oTLxA31znga8OxV1c4qFVYUQjIXkMe7ckoeI5Me_jwvFWO2V4R7HEZt7cizVd3BweUkZH5LAw1avgbJrNT3DpLu4U60Xt4vN-atYgz383VUKCsLnxJygP1EIOBDCtxe4X3u81p9g6B5I4undaqhNgCHzVfhVfL4pNE93yxfbqCwnsj7KVhvT8LajUhLKe_5MWKSMR5AfQNorYoAjRkwgnLkSPPCGGqoDSGWOhNGand_oxxBAF7sMIa3RNQ_6zQHj5GfD4OfPQdPJMUTlCQyfHh4fVvFkLw_mh2ZsQIpLaSKdTJjrW_f2MI42_Chv_7YMoh4MyLD6T5Y9XDZH8lIrGKf_TW-TTYaRV0L9v2kP1VxgKf98LteUgREPMUHgieykEoMAmcvAKPVOEHK_J2H4w-X7EKfIKHVSLTwO2Nr9aQVM7dPiMmSHli1TJ8Q8HxbEu1P__-mugyPKy1UNZTqXE3JA09sykS8y-QIt31RV52Sz- -lOIIPKsMAPw16_R7tMqnsb7EzXa1Ak9mFVGK5QDjLVm7]--></g></svg>